<?xml version="1.0" encoding="utf-8"?>
<!-- Generator: Adobe Illustrator 24.1.3, SVG Export Plug-In . SVG Version: 6.00 Build 0)  -->
<svg version="1.1" id="Camada_1" xmlns="http://www.w3.org/2000/svg" xmlns:xlink="http://www.w3.org/1999/xlink" x="0px" y="0px"
	 viewBox="0 0 629.1 316.5" style="enable-background:new 0 0 629.1 316.5;" xml:space="preserve">
<style type="text/css">
	.st0{display:none;}
	.st1{display:inline;opacity:0.4;}
	.st2{display:inline;}
	.st3{fill:#231F20;}
</style>
<g id="Camada_1_2_" class="st0">
	<g id="Camada_1_1_" class="st1">
	</g>
	<g id="Camada_2_1_" class="st2">
		<g>
			<g>
				<path class="st3" d="M773,41.1h-89.3v57.6h99.7v45H629V-99h149.4v45h-94.7v50.4H773V41.1L773,41.1z"/>
				<path class="st3" d="M877.4,81.4l-17.3,62.3h-56.5l73.8-242.6h72l75.6,242.6h-59.4l-18.7-62.3L877.4,81.4L877.4,81.4z
					 M938.9,40.4l-15.1-51.5c-4.3-14.4-8.6-32.4-12.2-46.8h-0.7c-3.6,14.4-7.2,32.8-11.2,46.8l-14.4,51.5H938.9z"/>
			</g>
			<g>
				<path class="st3" d="M619.9,315.8h-23.6v18.4h26.3v9.4h-37.7v-62.5h36.4v9.4h-24.9v16.1H620L619.9,315.8L619.9,315.8z"/>
				<path class="st3" d="M632.4,331.1c3.7,2.1,9.3,4,15.1,4c7.3,0,11.4-3.4,11.4-8.5c0-4.7-3.2-7.5-11.1-10.4
					c-10.3-3.7-16.9-9.2-16.9-18.2c0-10.2,8.5-18,22.1-18c6.8,0,11.8,1.5,15,3.2l-2.8,9.2c-2.2-1.2-6.6-3-12.4-3
					c-7.2,0-10.4,3.9-10.4,7.5c0,4.8,3.6,7,12,10.3c10.9,4.1,16.1,9.6,16.1,18.5c0,10-7.6,18.7-23.7,18.7c-6.6,0-13.4-1.9-16.9-3.9
					L632.4,331.1z"/>
				<path class="st3" d="M725.6,341.7c-2.7,1.4-8.6,2.8-16.1,2.8c-19.8,0-31.9-12.4-31.9-31.4c0-20.6,14.3-33,33.4-33
					c7.5,0,12.9,1.6,15.2,2.8l-2.5,9.1c-3-1.3-7-2.4-12.2-2.4c-12.7,0-21.9,8-21.9,23c0,13.7,8.1,22.5,21.8,22.5
					c4.6,0,9.5-0.9,12.4-2.3L725.6,341.7z"/>
				<path class="st3" d="M788.4,311.6c0,21-12.7,32.9-30,32.9c-17.6,0-28.8-13.4-28.8-31.8c0-19.2,12.1-32.7,29.7-32.7
					C777.6,280,788.4,293.8,788.4,311.6z M741.7,312.6c0,12.7,6.4,22.8,17.3,22.8c11,0,17.3-10.2,17.3-23.3
					c0-11.8-5.8-22.9-17.3-22.9C747.8,289.2,741.7,299.7,741.7,312.6z"/>
				<path class="st3" d="M798.2,281h11.4v53h25.7v9.6h-37.1V281L798.2,281z"/>
				<path class="st3" d="M856.8,325.8l-5.4,17.7h-11.8l20-62.5h14.6l20.3,62.5h-12.2l-5.7-17.7H856.8z M874.7,317.2l-4.9-15.4
					c-1.2-3.8-2.2-8.1-3.2-11.7h-0.2c-0.9,3.6-1.9,8-3,11.7l-4.8,15.4H874.7z"/>
				<path class="st3" d="M922.5,281.9c5-0.8,11.4-1.3,18.2-1.3c11.7,0,19.8,2.4,25.5,7.2c6,4.9,9.7,12.3,9.7,23
					c0,11.1-3.8,19.5-9.7,24.9c-6.2,5.7-16.1,8.5-28.3,8.5c-6.7,0-11.7-0.4-15.4-0.8L922.5,281.9L922.5,281.9z M933.9,334.8
					c1.6,0.3,4,0.3,6.3,0.3c14.8,0.1,23.6-8.1,23.6-23.9c0.1-13.8-7.9-21.7-22.2-21.7c-3.6,0-6.2,0.3-7.8,0.6L933.9,334.8
					L933.9,334.8z"/>
				<path class="st3" d="M1020.8,315.8h-23.6v18.4h26.3v9.4h-37.7v-62.5h36.4v9.4h-24.9v16.1h23.6L1020.8,315.8L1020.8,315.8z"/>
				<path class="st3" d="M521.1,437.1l-5.4,17.7h-11.8l20-62.5h14.6l20.3,62.5h-12.2l-5.7-17.7H521.1z M539,428.5l-4.9-15.4
					c-1.2-3.8-2.2-8.1-3.2-11.7h-0.2c-0.9,3.6-1.9,8-3,11.7l-4.8,15.4H539z"/>
				<path class="st3" d="M615.7,452c-4,1.5-11.8,3.5-20.1,3.5c-10.6,0-18.5-2.7-24.5-8.3c-5.6-5.3-8.8-13.5-8.7-23
					c0-19.8,14.1-32.5,34.8-32.5c7.7,0,13.7,1.6,16.6,3l-2.5,9.2c-3.4-1.5-7.6-2.7-14.2-2.7c-13.4,0-22.7,7.9-22.7,22.4
					c0,14.2,8.7,22.6,21.7,22.6c4.1,0,7.1-0.6,8.6-1.3v-15.6h-11v-9h22.1L615.7,452L615.7,452z"/>
				<path class="st3" d="M627.4,393.2c4.3-0.7,10.7-1.3,17.3-1.3c9,0,15.1,1.5,19.3,5c3.4,2.9,5.4,7.2,5.4,12.5
					c0,8.1-5.5,13.5-11.3,15.7v0.3c4.5,1.7,7.1,6,8.7,12.1c1.9,7.8,3.6,15,4.9,17.4h-11.8c-0.9-1.9-2.4-7-4.2-14.7
					c-1.8-8.2-4.7-10.8-11.2-10.9h-5.8v25.5h-11.3V393.2L627.4,393.2z M638.7,420.8h6.8c7.7,0,12.5-4.1,12.5-10.3
					c0-6.9-4.8-10-12.2-10c-3.6,0-5.9,0.3-7,0.6L638.7,420.8L638.7,420.8z"/>
				<path class="st3" d="M735.6,422.9c0,21-12.7,32.9-30,32.9c-17.6,0-28.8-13.4-28.8-31.8c0-19.2,12.1-32.7,29.7-32.7
					C724.9,391.3,735.6,405.1,735.6,422.9z M689,423.9c0,12.7,6.4,22.8,17.3,22.8c11,0,17.3-10.2,17.3-23.3
					c0-11.8-5.8-22.9-17.3-22.9C695,400.5,689,411,689,423.9z"/>
				<path class="st3" d="M745.4,454.8v-62.5h13l16.1,26.8c4.2,7,7.8,14.2,10.7,21h0.2c-0.7-8.3-1-16.4-1-26v-21.8H795v62.5h-11.8
					l-16.3-27.5c-4-6.9-8.2-14.6-11.2-21.6l-0.3,0.1c0.5,8.1,0.6,16.3,0.6,26.6v22.4H745.4L745.4,454.8z"/>
				<path class="st3" d="M863.6,422.9c0,21-12.7,32.9-30,32.9c-17.6,0-28.8-13.4-28.8-31.8c0-19.2,12.1-32.7,29.7-32.7
					C852.8,391.3,863.6,405.1,863.6,422.9z M816.9,423.9c0,12.7,6.4,22.8,17.3,22.8c11,0,17.3-10.2,17.3-23.3
					c0-11.8-5.8-22.9-17.3-22.9C823,400.5,816.9,411,816.9,423.9z"/>
				<path class="st3" d="M926.2,429.3c-0.4-8.1-0.8-17.8-0.7-26.2h-0.3c-2,7.6-4.6,16-7.4,23.9l-9.1,27.1h-8.8l-8.3-26.7
					c-2.4-8-4.6-16.5-6.3-24.3h-0.2c-0.3,8.2-0.6,18.1-1.1,26.6l-1.4,25.1h-10.7l4.2-62.5h15l8.2,25.1c2.2,7.3,4.2,14.7,5.8,21.7
					h0.3c1.7-6.8,3.8-14.5,6.2-21.8l8.6-25H935l3.6,62.5h-11.1L926.2,429.3z"/>
				<path class="st3" d="M961.5,392.3v62.5h-11.4v-62.5H961.5z"/>
				<path class="st3" d="M987.1,437.1l-5.4,17.7h-11.8l20-62.5h14.6l20.3,62.5h-12.2l-5.7-17.7H987.1z M1005,428.5l-4.9-15.4
					c-1.2-3.8-2.2-8.1-3.2-11.7h-0.2c-0.9,3.6-1.9,8-3,11.7l-4.8,15.4H1005z"/>
			</g>
		</g>
	</g>
</g>
<g>
	<g>
		<path d="M220.3,135.8c-5.7,2.9-18.6,5.9-35.3,5.9c-47.5,0-72-29.6-72-68.7c0-46.9,33.4-73,75-73c16.1,0,28.3,3.3,33.8,6.1
			l-6.3,24.7c-6.3-2.7-15.1-5.1-26.1-5.1c-24.7,0-43.8,14.9-43.8,45.5c0,27.5,16.3,44.9,44,44.9c9.4,0,19.8-2,25.9-4.5L220.3,135.8z
			"/>
		<path d="M241.7,107.6c8.4,4.3,21.2,8.6,34.5,8.6c14.3,0,21.8-5.9,21.8-14.9c0-8.6-6.5-13.5-23-19.4c-22.8-8-37.7-20.6-37.7-40.6
			c0-23.4,19.6-41.4,52-41.4c15.5,0,26.9,3.3,35.1,6.9L317.3,32c-5.5-2.7-15.3-6.5-28.7-6.5s-20,6.1-20,13.3
			c0,8.8,7.7,12.6,25.5,19.4c24.3,9,35.7,21.6,35.7,41c0,23-17.7,42.6-55.5,42.6c-15.7,0-31.2-4.1-38.9-8.4L241.7,107.6z"/>
		<path d="M383.2,139.7l-44-137.4h34l16.7,58.1c4.7,16.3,9,32,12.2,49.1h0.6c3.5-16.5,7.7-32.8,12.4-48.5l17.5-58.7h33l-46.3,137.4
			H383.2z"/>
		<path d="M596.6,87.1c-0.6-16.5-1.2-36.5-1.2-56.5h-0.6c-4.3,17.5-10,37.1-15.3,53.2l-16.7,53.6h-24.3l-14.7-53.2
			c-4.5-16.1-9.2-35.7-12.4-53.6H511c-0.8,18.6-1.4,39.8-2.4,56.9l-2.4,52.2h-28.7l8.8-137.4h41.4L541,48.1
			c4.3,15.9,8.6,33,11.6,49.1h0.6c3.9-15.9,8.6-34,13-49.3L581,2.2h40.6l7.5,137.4h-30.4L596.6,87.1z"/>
	</g>
	<g>
		<path d="M27.2,251.8c-1.5,0.8-4.9,1.6-9.1,1.6c-11.2,0-18.1-7-18.1-17.8c0-11.7,8.1-18.7,18.9-18.7c4.3,0,7.3,0.9,8.6,1.6
			l-1.4,5.1c-1.7-0.7-4-1.4-6.9-1.4c-7.2,0-12.4,4.5-12.4,13c0,7.8,4.6,12.8,12.3,12.8c2.6,0,5.4-0.5,7-1.3L27.2,251.8z"/>
		<path d="M40.2,242.8l-3,10h-6.7l11.3-35.4h8.2l11.5,35.4h-6.9l-3.2-10H40.2z M50.3,237.9l-2.8-8.7c-0.7-2.2-1.3-4.6-1.8-6.6h-0.1
			c-0.5,2-1.1,4.5-1.7,6.6l-2.7,8.7H50.3z M54.5,209.3l-6.6,6.3h-5.2l4.6-6.3H54.5z"/>
		<path d="M69,222.9H58.9v-5.4h26.7v5.4H75.5v30H69V222.9z"/>
		<path d="M109.6,237.1H96.3v10.4h14.9v5.3H89.8v-35.4h20.6v5.3H96.3v9.1h13.3V237.1z"/>
		<path d="M116.9,217.9c2.8-0.5,6.5-0.7,10.3-0.7c6.6,0,11.2,1.4,14.4,4.1c3.4,2.8,5.5,7,5.5,13c0,6.3-2.2,11-5.5,14.1
			c-3.5,3.2-9.1,4.8-16,4.8c-3.8,0-6.6-0.2-8.7-0.5V217.9z M123.3,247.9c0.9,0.2,2.3,0.2,3.6,0.2c8.4,0.1,13.4-4.6,13.4-13.6
			c0.1-7.8-4.5-12.3-12.6-12.3c-2,0-3.5,0.2-4.4,0.4V247.9z"/>
		<path d="M152.7,217.9c2.4-0.4,6-0.7,9.8-0.7c5.1,0,8.6,0.8,10.9,2.8c1.9,1.6,3,4.1,3,7.1c0,4.6-3.1,7.7-6.4,8.9v0.2
			c2.5,0.9,4,3.4,4.9,6.8c1.1,4.4,2,8.5,2.8,9.9h-6.7c-0.5-1.1-1.4-3.9-2.4-8.4c-1-4.6-2.7-6.1-6.4-6.2h-3.3v14.5h-6.4V217.9z
			 M159.1,233.6h3.8c4.4,0,7.1-2.3,7.1-5.8c0-3.9-2.7-5.7-6.9-5.7c-2,0-3.4,0.2-4,0.3V233.6z"/>
		<path d="M190.1,242.8l-3,10h-6.7l11.3-35.4h8.2l11.5,35.4h-6.9l-3.2-10H190.1z M200.2,237.9l-2.8-8.7c-0.7-2.2-1.3-4.6-1.8-6.6
			h-0.1c-0.5,2-1.1,4.5-1.7,6.6l-2.7,8.7H200.2z"/>
		<path d="M227.1,245.8c2.1,1.2,5.3,2.3,8.6,2.3c4.1,0,6.5-1.9,6.5-4.8c0-2.7-1.8-4.3-6.3-5.9c-5.8-2.1-9.6-5.2-9.6-10.3
			c0-5.8,4.8-10.2,12.5-10.2c3.8,0,6.7,0.8,8.5,1.8l-1.6,5.2c-1.3-0.7-3.7-1.7-7-1.7c-4.1,0-5.9,2.2-5.9,4.3c0,2.7,2,4,6.8,5.8
			c6.1,2.3,9.1,5.4,9.1,10.5c0,5.7-4.3,10.6-13.4,10.6c-3.7,0-7.6-1.1-9.6-2.2L227.1,245.8z"/>
		<path d="M274.3,237.1H261v10.4h14.9v5.3h-21.4v-35.4h20.6v5.3H261v9.1h13.3V237.1z M273.4,209.3l-6.6,6.3h-5.2l4.6-6.3H273.4z"/>
		<path d="M281.5,217.9c2.4-0.4,6-0.7,9.8-0.7c5.1,0,8.6,0.8,10.9,2.8c1.9,1.6,3,4.1,3,7.1c0,4.6-3.1,7.7-6.4,8.9v0.2
			c2.5,0.9,4,3.4,4.9,6.8c1.1,4.4,2,8.5,2.8,9.9h-6.7c-0.5-1.1-1.4-3.9-2.4-8.4c-1-4.6-2.7-6.1-6.4-6.2H288v14.5h-6.4V217.9z
			 M288,233.6h3.8c4.4,0,7.1-2.3,7.1-5.8c0-3.9-2.7-5.7-6.9-5.7c-2,0-3.4,0.2-4,0.3V233.6z"/>
		<path d="M339.8,251.2c-2.3,0.8-6.7,2-11.4,2c-6,0-10.5-1.5-13.9-4.7c-3.2-3-5-7.7-4.9-13c0-11.2,8-18.4,19.7-18.4
			c4.4,0,7.8,0.9,9.4,1.7l-1.4,5.2c-1.9-0.8-4.3-1.5-8-1.5c-7.6,0-12.9,4.5-12.9,12.7c0,8,4.9,12.8,12.3,12.8c2.3,0,4-0.3,4.9-0.7
			v-8.8h-6.3v-5.1h12.5V251.2z"/>
		<path d="M352.9,217.5v35.4h-6.5v-35.4H352.9z"/>
		<path d="M391.7,234.8c0,11.9-7.2,18.6-17,18.6c-10,0-16.3-7.6-16.3-18c0-10.9,6.8-18.5,16.8-18.5
			C385.6,216.9,391.7,224.7,391.7,234.8z M365.3,235.3c0,7.2,3.6,12.9,9.8,12.9c6.3,0,9.8-5.8,9.8-13.2c0-6.7-3.3-13-9.8-13
			C368.7,222.1,365.3,228,365.3,235.3z"/>
		<path d="M414.3,252.9l-11.5-35.4h7l4.8,16.1c1.4,4.5,2.5,8.6,3.5,12.9h0.1c0.9-4.2,2.2-8.5,3.6-12.8l5.1-16.2h6.9l-12.2,35.4
			H414.3z"/>
		<path d="M444.2,217.5v35.4h-6.5v-35.4H444.2z"/>
		<path d="M471.5,237.1h-13.3v10.4H473v5.3h-21.4v-35.4h20.6v5.3h-14.1v9.1h13.3V237.1z"/>
		<path d="M485.2,217.5v35.4h-6.5v-35.4H485.2z"/>
		<path d="M492.6,217.9c2.4-0.4,6-0.7,9.8-0.7c5.1,0,8.6,0.8,10.9,2.8c1.9,1.6,3,4.1,3,7.1c0,4.6-3.1,7.7-6.4,8.9v0.2
			c2.5,0.9,4,3.4,4.9,6.8c1.1,4.4,2,8.5,2.8,9.9h-6.7c-0.5-1.1-1.4-3.9-2.4-8.4c-1-4.6-2.7-6.1-6.4-6.2H499v14.5h-6.4V217.9z
			 M499,233.6h3.8c4.4,0,7.1-2.3,7.1-5.8c0-3.9-2.7-5.7-6.9-5.7c-2,0-3.4,0.2-4,0.3V233.6z"/>
		<path d="M529.9,242.8l-3,10h-6.7l11.3-35.4h8.2l11.5,35.4h-6.9l-3.2-10H529.9z M540,237.9l-2.8-8.7c-0.7-2.2-1.3-4.6-1.8-6.6h-0.1
			c-0.5,2-1,4.5-1.7,6.6l-2.7,8.7H540z"/>
		<path d="M567.1,217.9c2.8-0.5,6.5-0.7,10.3-0.7c6.6,0,11.2,1.4,14.4,4.1c3.4,2.8,5.5,7,5.5,13c0,6.3-2.2,11-5.5,14.1
			c-3.5,3.2-9.1,4.8-16,4.8c-3.8,0-6.6-0.2-8.7-0.5V217.9z M573.5,247.9c0.9,0.2,2.3,0.2,3.6,0.2c8.4,0.1,13.4-4.6,13.4-13.6
			c0.1-7.8-4.5-12.3-12.6-12.3c-2,0-3.5,0.2-4.4,0.4V247.9z"/>
		<path d="M622.8,237.1h-13.3v10.4h14.9v5.3H603v-35.4h20.6v5.3h-14.1v9.1h13.3V237.1z"/>
		<path d="M502.7,301.4c-0.2-4.6-0.5-10.1-0.4-14.9h-0.2c-1.2,4.3-2.6,9.1-4.2,13.6l-5.1,15.3h-5l-4.7-15.1
			c-1.4-4.5-2.6-9.3-3.6-13.8h-0.1c-0.2,4.6-0.4,10.2-0.6,15.1l-0.8,14.2h-6l2.4-35.4h8.5l4.6,14.2c1.3,4.1,2.4,8.4,3.3,12.3h0.2
			c0.9-3.8,2.2-8.2,3.5-12.3l4.9-14.2h8.4l2,35.4h-6.3L502.7,301.4z"/>
		<path d="M536,300.2h-13.3v10.4h14.9v5.3h-21.4v-35.4h20.6v5.3h-14.1v9.1H536V300.2z"/>
		<path d="M543.3,280.5h6.5v30h14.5v5.4h-21V280.5z"/>
		<path d="M569.2,280.5h6.5v30h14.5v5.4h-21V280.5z"/>
		<path d="M624.4,297.8c0,11.9-7.2,18.6-17,18.6c-10,0-16.3-7.6-16.3-18c0-10.9,6.8-18.5,16.8-18.5
			C618.3,279.9,624.4,287.7,624.4,297.8z M598,298.3c0,7.2,3.6,12.9,9.8,12.9c6.3,0,9.8-5.8,9.8-13.2c0-6.7-3.3-13-9.8-13
			C601.4,285.1,598,291,598,298.3z"/>
	</g>
</g>
</svg>
